# xmcd
#
# Track frame offsets:
#	150
#	27594
#	42139
#	54914
#	70260
#	81516
#	99063
#	117227
#	132909
#	147129
#	160714
#	174135
#	188387
#	203541
#
# Disc length: 2912 seconds
#
# Revision: 0
# Processed by: cddbd v1.5.2PL0 Copyright (c) Steve Scherf et al.
# Submitted via: dBpowerAMP V4.0
#
DISCID=a90b5e0e
DTITLE=Louis Armstrong - hello dolly
DYEAR=1900
DGENRE=Blues
TTITLE0=Hello Dolly
TTITLE1=La vie en Rose
TTITLE2=Blues
TTITLE3=How high the moon
TTITLE4=Gone fishin'
TTITLE5=Basin street blues
TTITLE6=I love the guy
TTITLE7=C.Jam blues
TTITLE8=I can't believe that you are in love with me
TTITLE9=St.Louis blues
TTITLE10=I used to love you
TTITLE11=Big butter and Egg man
TTITLE12=Just a gigolo
TTITLE13=Sweethearts on parade
EXTD=
EXTT0=
EXTT1=
EXTT2=
EXTT3=
EXTT4=
EXTT5=
EXTT6=
EXTT7=
EXTT8=
EXTT9=
EXTT10=
EXTT11=
EXTT12=
EXTT13=
PLAYORDER=
